<svg height="100" viewBox="0 0 300 100" width="300" xmlns="http://www.w3.org/2000/svg"><path d="m120.084399 43.0690909c-.541186.3332476-1.249649.1972872-1.626598-.3121591-1.829259-2.5947753-4.851011-4.1026171-8.040921-4.0123863-6.138108 0-9.913044 4.8194318-9.913044 11.702159 0 6.8827273 3.836317 11.7935228 9.974425 11.7935228 3.242723.0738962 6.294328-1.5178921 8.071611-4.2103409.364572-.5176831 1.067395-.6730322 1.618926-.3578409l2.907928 1.675c.301027.1735095.5143.465006.587342.8027645.073042.3377586-.000928.6904212-.20371.9712127-2.897502 4.309536-7.824748 6.837622-13.043478 6.6923864-9.767264 0-16.4194375-7.0654546-16.4194375-17.3667046s6.6521735-17.2753409 16.3196935-17.2753409c5.125873-.1412399 9.988798 2.2487104 12.982097 6.3802273.204492.2757621.284272.6234621.220248.9598916-.064024.3364296-.266091.6313145-.557844.8140857zm21.483376 22.9170455v-1.4009091c-1.534527 1.9643182-3.682865 3.1825-7.127877 3.1825-5.094629 0-8.631714-2.76375-8.631714-7.6136364 0-6.0376136 5.424553-7.0730682 8.777494-7.5375 3.58312-.5177273 6.652174-.7613636 6.652174-3.0911364 0-2.0632954-2.409207-2.6190909-4.442456-2.6190909-2.331367.0393992-4.621679.6153933-6.690537 1.6826137-.291631.1586736-.635906.1923155-.953126.093138-.31722-.0991776-.579882-.3225757-.727181-.6184789l-1.074168-2.1622728c-.296097-.5856164-.072366-1.2987412.506393-1.6140909 2.892824-1.5408935 6.123413-2.3514822 9.40665-2.3602272 5.846547 0 9.974425 2.3830681 9.974425 8.1465909v15.9125c0 .6727832-.549625 1.2181818-1.227622 1.2181818h-3.222506c-.674999-.0041864-1.219962-.5483607-1.219949-1.2181818zm-.329923-11.0017046c-1.13555.8451137-3.214834 1.1268182-5.432225 1.5227273-2.217392.3959091-4.051151.9821591-4.051151 3.3728409 0 2.2003409 1.60358 3.2281818 3.913043 3.2281818 2.877238 0 5.570333-1.59125 5.570333-5.2914773zm11.30179 5.9157955c.430688-.5017814 1.185457-.5726295 1.703325-.1598864 2.048091 1.5378006 4.560232 2.3428031 7.127877 2.2840909 2.647059 0 4.603581-.8451136 4.603581-2.9007954 0-1.8729546-1.795397-2.2840909-6.138108-2.9997728-4.60358-.7613636-9.015345-2.2840909-9.015345-7.4918181 0-5.4285228 4.71867-7.7202273 10.097187-7.7202273 3.37303-.0506365 6.665913 1.0215742 9.352941 3.0454545.266891.2046782.436471.5098743.468451.8430799s-.076495.6646795-.299653.9156701l-1.534527 1.7892046c-.422419.4982337-1.163674.5818194-1.68798.1903409-1.873696-1.3677606-4.141996-2.0993561-6.46803-2.0861364-2.301791 0-4.242967.6547727-4.242967 2.42875 0 1.9719318 2.785166 2.345 5.570332 2.8094318 5.938619 1.0354546 9.713555 2.7180682 9.713555 7.6136364 0 5.1544318-4.150895 8.3369318-10.741688 8.3369318-3.603393.1089788-7.131782-1.0356633-9.974424-3.2357954-.257269-.2081042-.419319-.5101891-.449629-.8381771-.030311-.327988.073668-.6542809.288503-.9053457zm22.849105 5.0859091v-30.9875c0-.6727833.549625-1.2181819 1.227621-1.2181819h3.537085c.325585 0 .637835.1283438.868059.3567972s.359562.5383028.359562.8613847v10.5753409c1.783461-2.3692905 4.616873-3.7296625 7.595908-3.6469318 5.240409 0 8.30179 3.7002272 8.30179 8.9840909v15.075c0 .6727832-.549624 1.2181818-1.227621 1.2181818h-3.537085c-.677996 0-1.227621-.5453986-1.227621-1.2181818v-13.7045455c0-2.6267045-.84399-5.0097727-4.242967-5.0097727-3.207161 0-5.662404 2.2460227-5.662404 5.9919318v12.7223864c0 .6727832-.549625 1.2181818-1.227621 1.2181818h-3.537085c-.677996 0-1.227621-.5453986-1.227621-1.2181818zm60.813299.3882954-2.56266-7.45375h-12.859335l-2.547314 7.45375c-.168357.4967814-.638061.8310187-1.166241.8298864h-4.143222c-.402537.0002997-.779647-.1952461-1.009253-.5233357-.229605-.3280896-.282531-.7470327-.141642-1.1212098l11.585677-30.9875c.189327-.4645092.645977-.7666013 1.150895-.7613636h5.700768c.504918-.0052377.961568.2968544 1.150895.7613636l11.547314 30.9951137c.137704.3732863.083205.7897638-.146005 1.1157727-.229211.3260089-.6043.5205387-1.00489.5211591h-4.388747c-.528179.0011323-.997883-.333105-1.16624-.8298864zm-8.915601-27.1654545-4.948849 14.5192045h9.713555zm24.491049 4.4996591v1.9186363c1.767692-2.4353325 4.650737-3.8257181 7.672634-3.7002272 6.797954 0 11.186701 5.5731818 11.186701 12.874659 0 7.3014773-4.388747 12.9431819-11.186701 12.9431819-3.030172.1137123-5.914339-1.2943865-7.672634-3.7459091v10.13375c0 .6727832-.549625 1.2181818-1.227622 1.2181818h-3.537084c-.677997 0-1.227622-.5453986-1.227622-1.2181818v-30.4545455c0-.6727832.549625-1.2181818 1.227622-1.2181818h3.506394c.336263-.0084516.661293.1203849.899143.3564066.237851.2360218.367686.5585516.359169.8922298zm6.414322 18.8589772c4.150895 0 6.184143-3.5098863 6.184143-7.7659091 0-4.2560227-2.033248-7.682159-6.184143-7.682159s-6.414322 3.4185227-6.414322 7.682159c0 4.2636364 2.217391 7.7659091 6.414322 7.7659091zm22.127877-18.8589772v1.9186363c1.770453-2.4320754 4.651613-3.8215523 7.672634-3.7002272 6.790282 0 11.179028 5.5731818 11.179028 12.874659 0 7.3014773-4.388746 12.9431819-11.179028 12.9431819-3.029273.1095346-5.91155-1.2976415-7.672634-3.7459091v10.13375c0 .6727832-.549625 1.2181818-1.227621 1.2181818h-3.529412c-.677997 0-1.227622-.5453986-1.227622-1.2181818v-30.4545455c-.002058-.3237037.126619-.6347411.357291-.8636387.230671-.2288976.544119-.3565855.870331-.3545431h3.529412c.331637-.0022328.649898.1296114.881494.3651717s.356564.5545326.346127.8834647zm6.421995 18.8589772c4.150895 0 6.138107-3.5098863 6.138107-7.7659091 0-4.2560227-2.025575-7.682159-6.138107-7.682159s-6.421995 3.4185227-6.421995 7.682159c0 4.2636364 2.225064 7.7659091 6.421995 7.7659091zm-243.5217392-44.9585227c6.6905371 0 9.9820972 0 13.595908 1.1268182 3.9261973 1.4107708 7.0181948 4.4789927 8.4398977 8.375 1.1355498 3.5555682 1.1355498 6.8522727 1.1355498 13.4609091v19.8868182c0 6.6010227 0 9.8977272-1.1355498 13.4609091-1.4217029 3.8960072-4.5137004 6.9642291-8.4398977 8.375-3.5831202 1.1268181-6.9053709 1.1268181-13.5652174 1.1268181h-20.1023018c-6.6521739 0-9.9744246 0-13.5652174-1.1268181-3.92619735-1.4107709-7.01819483-4.4789928-8.43989769-8.375-1.10485934-3.5555682-1.10485934-6.8218182-1.10485934-13.4609091v-19.9172728c0-6.6010227 0-9.8977272 1.13554987-13.4609091 1.42170287-3.8960072 4.51370035-6.9642291 8.4398977-8.375 3.55242966-1.0963636 6.88235296-1.0963636 13.53452686-1.0963636zm-8.347826 21.5694318c3.2595052.0050516 6.4121677 1.1539371 8.9002557 3.2434091.5334285.4796563 1.3513566.4629559 1.8644501-.0380682l2.5626599-2.5505681c.2596444-.2558364.3998295-.6076424.3867179-.9704997-.0131116-.3628572-.1783288-.7037967-.4557716-.9405231-2.0126831-1.6989992-4.3400323-2.9920861-6.8516624-3.8068182l.7672634-3.7535227c.0808477-.3906754-.0199771-.7967046-.2744868-1.1053802-.2545098-.3086756-.6356175-.4871457-1.0375337-.4858698h-4.9335038c-.6297217-.0006267-1.1752811.433098-1.3120205 1.0430682l-.690537 3.3576136c-6.567775.3197728-12.1381075 3.5479546-12.1381075 10.1642046 0 5.7178409 4.6035806 8.1770454 9.4680307 9.8977273 4.6035806 1.6978409 7.0434783 2.3297727 7.0434783 4.7204545s-2.4322251 3.8981818-6.0153453 3.8981818c-3.4772603.0550247-6.8367839-1.249463-9.3529411-3.6317045-.5194938-.506921-1.352629-.506921-1.8721228 0l-2.7468031 2.6647727c-.2592781.2482324-.4057309.590386-.4057309.9478977s.1464528.6996653.4057309.9478978c2.2380928 2.0801296 4.9697662 3.5651045 7.9411765 4.3169318l-.7672634 3.4794318c-.0805765.3893689.0192961.7940637.2720629 1.1024287.2527669.308365.6317123.4878083 1.0322849.4888213h4.9488491c.634909.0034403 1.1854627-.4348865 1.3196931-1.0506818l.713555-3.2586364c7.8721227-.4796591 12.6828644-4.6823864 12.6828644-10.8342045 0-5.6645455-4.7953964-8.0552273-10.6189258-10.0043182-3.3299233-1.2410227-6.2071611-2.0556818-6.2071611-4.5072727 0-2.451591 2.685422-3.3347728 5.370844-3.3347728z"/></svg>