<svg height="100" viewBox="0 0 300 100" width="300" xmlns="http://www.w3.org/2000/svg"><path d="m288.367244 102v-104h7.630884v104zm-42.487675-69.3314516h7.583192v32.9721367h-7.959869l-11.871671-21.1970201v21.1970201h-7.630884v-32.9721367h7.959869l11.919363 21.478701zm-49.977426-.8481572c10.92657 0 17.427422 8.2905082 17.427422 17.3342742 0 9.0436687-6.500852 17.3342742-17.427422 17.3342742-10.976209 0-17.477061-8.2906055-17.477061-17.3342742 0-9.043766 6.500852-17.3342742 17.477061-17.3342742zm9.656378 17.3342742c0-5.4167599-3.675283-10.4569396-9.656378-10.4569396-6.029761 0-9.656378 5.0401797-9.656378 10.4569396 0 5.41676 3.626617 10.4568423 9.656378 10.4568423 5.981095 0 9.656378-5.0400823 9.656378-10.4568423zm-132.8795879-9.8920206v-6.5940964h22.5610407v6.5940964h-7.4898493v26.3780403h-7.6305924v-26.3780403zm80.8766679 7.0182724h12.481947v5.9833336h-12.481947v7.2522602h12.481947v6.1241741h-20.112831v-32.9721367h20.112831v6.1241741h-12.481947zm-32.595751-13.6123688c7.299953 0 12.010857 5.5117567 12.010857 11.9175143 0 4.6161011-2.449865 8.7130295-6.548545 10.6452784l6.596238 10.409344h-8.85533l-5.842883-9.1387628h-3.579897v9.1387628h-7.629911v-32.9721367zm4.285559 11.9175143c0-3.062087-2.073186-5.6999981-5.276406-5.6999981h-5.228713v11.3984389h5.228713c3.20322 0 5.276406-2.6363538 5.276406-5.6984408zm-67.4985789 17.051036h-11.7292728l-1.2723332 4.0035864h-8.149765l11.7767711-32.9721367h7.018175l11.9175143 32.9721367h-8.2905082zm-5.8425905-19.5481067-4.0510847 13.5664277h8.0071727zm-34.1036294-9.4204436c7.3015105 0 12.012511 5.5117567 12.012511 11.9175143s-4.7110005 11.9158596-12.012511 11.9158596h-6.1700178v9.1387628h-7.6305924v-32.9721367zm4.3344202 11.9175143c0-3.062087-2.0730894-5.6999981-5.2760168-5.6999981h-5.2284212v11.3984389h5.2284212c3.2029274 0 5.2760168-2.6363538 5.2760168-5.6984408z" fill-rule="evenodd"/></svg>