<svg height="100" viewBox="0 0 300 100" width="300" xmlns="http://www.w3.org/2000/svg"><path d="m77.1392147 68.4517787c-1.7967197 0-3.6008946-.0525692-5.3752485-.1727273-1.8724465-.1265223-3.7335382-.3875282-5.5690855-.7810277v-32.0671937c1.5059642-.2928853 3.1833996-.4881423 4.9875746-.6383399 1.7967197-.1501976 3.474155-.2177865 5.0323061-.2177865 2.0949304 0 4.0109344.1501976 5.7629225.4656126 1.7519881.2928854 3.2579523.8110672 4.5253479 1.5395257 1.2673956.7359684 2.2589463 1.6897233 2.9671968 2.8913043.7082505 1.2015811 1.0735587 2.6735178 1.0735587 4.4083004 0 2.6434783-1.2649106 4.7262187-3.7947316 6.2482214 2.0949304.7810277 3.5039761 1.8849802 4.2569582 3.2367589.7529821 1.3743083 1.1406561 2.913834 1.1406561 4.6260869 0 3.4770751-1.2673956 6.0754941-3.7723658 7.8177866-2.5497018 1.7873518-6.2698807 2.6434783-11.2350895 2.6434783zm-3.7425447-20.5019763h3.6008946c2.2887674 0 3.8916501-.2928854 4.8906561-.8786562.9691849-.5857707 1.4612326-1.5395256 1.4612326-2.8387351 0-1.3442688-.5069583-2.2754941-1.5059642-2.8162056-1.0213718-.5407114-2.5049702-.8110672-4.4507953-.8110672-.6336978 0-1.3121272 0-2.0427435.0225297-.7306163.0225296-1.3643141.0525692-1.9458251.1201581-.0074552 0-.0074552 7.2019763-.0074552 7.2019763zm0 5.6849802v8.5462451c.5367793.0750988 1.1182902.1201581 1.7519881.1501976.6336978.0300395 1.334493.0525692 2.0949304.0525692 2.2142147 0 3.9885686-.3154151 5.3528827-.953755s2.0427435-1.8098814 2.0427435-3.5296442c0-1.5169961-.5591451-2.6209487-1.6998012-3.2592886-1.140656-.6608695-2.7733598-.9762846-4.890656-.9762846h-4.6446323v-.0300395zm29.276839-17.9561265c0 1.2992095-.41004 2.3280633-1.267396 3.0865613-.827534.758498-1.8265404 1.1264822-2.9671965 1.1264822-1.0953453.0185987-2.1565056-.3842658-2.9671968-1.1264822-.8275348-.758498-1.2673956-1.7648221-1.2673956-3.0865613 0-1.2992095.4100397-2.3280632 1.2673956-3.0865612.8141081-.7365718 1.8729829-1.1385686 2.9671968-1.1264823 1.0953453-.0185986 2.1565055.3842659 2.9671965 1.1264823.849901.758498 1.267396 1.7873517 1.267396 3.0865612zm-.678429 32.3600791h-7.0526844v-25.1130435h7.0526844zm3.794731-31.3612648 7.052684-1.1490119v7.3972332h8.484095v5.9252964h-8.484095v8.8166008c0 1.4944664.26839 2.6960475.775348 3.5747036s1.580517 1.3442688 3.161034 1.3442688c.782639-.0041162 1.563431-.0769879 2.333499-.2177866.75184-.1380024 1.492079-.3338325 2.214214-.5857707l.999006 5.5347826c-.924727.3761266-1.876849.6799242-2.847912.9086956-1.043738.2478261-2.311133.3905138-3.839463.3905138-1.92346 0-3.526342-.2703557-4.793738-.7810276-1.267396-.510672-2.288767-1.2466403-3.041749-2.2079052-.752983-.9312253-1.289762-2.0802371-1.580517-3.4019762-.311605-1.4559343-.466575-2.9414507-.462227-4.4308301v-21.1177865zm16.535785 18.8122529c-.012088-1.7457634.283239-3.4798552.872267-5.1217391.549766-1.5559173 1.409862-2.9820205 2.527336-4.1905138 1.095924-1.2015811 2.452783-2.1328064 4.0333-2.8387352 1.580517-.7134388 3.377237-1.0513834 5.397614-1.0513834 1.334493 0 2.549702.1201581 3.645627.3679842 1.100194.24272 2.175822.5871297 3.21322 1.0288537l-1.461232 5.6849803c-.716615-.2649257-1.448587-.4856244-2.191849-.6608696-.869744-.2050037-1.7609-.3033455-2.654076-.2928854-2.09493 0-3.645626.6608696-4.666998 1.9600791s-1.52833 3.0114624-1.52833 5.1442687c0 2.2529645.484593 4.0177866 1.431412 5.2418973.969185 1.2466403 2.654075 1.8624506 5.032306 1.8624506.922387-.0023223 1.842835-.0852418 2.750994-.2478261.926555-.1428405 1.832675-.3975047 2.698807-.758498l.999006 5.8276679c-.996977.4034778-2.030719.7078234-3.086481.9086957-1.345859.2645493-2.714252.395348-4.085487.3905138-2.288768 0-4.234593-.3454545-5.882207-1.0288537-1.65507-.6833992-2.989563-1.6146245-4.063121-2.7936759-1.073559-1.1790514-1.826541-2.5683795-2.311133-4.1679842-.444583-1.7190062-.670054-3.4880425-.670975-5.2644269zm44.403579-.0450593c0 1.9826087-.290756 3.7699605-.849901 5.4146245-.559145 1.6446641-1.38668 3.0339921-2.452783 4.1905139-1.085378 1.1649017-2.404325 2.0839195-3.869284 2.6960474-1.51342.6383399-3.1834.9537549-5.032306.9537549-1.826541 0-3.503977-.315415-5.009941-.9537549-1.465399-.6113162-2.784505-1.5304454-3.869284-2.6960474-1.073559-1.1490119-1.923459-2.5683795-2.50497-4.1905139-.611332-1.644664-.902088-3.4545454-.902088-5.4146245 0-1.9826087.313122-3.7699604.924454-5.3920948.611332-1.6146245 1.461232-3.0114625 2.549701-4.1379447 1.100246-1.1520503 2.42524-2.0623057 3.89165-2.6735178 1.505965-.6383399 3.138668-.9537549 4.913022-.9537549 1.79672 0 3.449305.3179183 4.957754.9537549 1.505964.6383399 2.795725 1.5169961 3.869284 2.6735178 1.106739 1.1925361 1.95925 2.6007937 2.50497 4.1379447.566601 1.6221344.879722 3.4094861.879722 5.3920948zm-7.194334 0c0-2.2079051-.439861-3.9201581-1.312127-5.1667984-.872267-1.2466403-2.117297-1.8849802-3.720179-1.8849802-1.602883 0-2.870279.6383399-3.742545 1.8849802s-1.334493 2.9889328-1.334493 5.1667984c0 2.2079052.439861 3.9426878 1.334493 5.2193676.872266 1.2992095 2.139662 1.9375494 3.742545 1.9375494 1.602882 0 2.847912-.6383399 3.720179-1.9375494.872266-1.2992095 1.312127-3.041502 1.312127-5.2193676zm17.750994-19.7660079c0 1.2992095-.41004 2.3280633-1.267396 3.0865613-.827534.758498-1.82654 1.1264822-2.967196 1.1264822-1.095346.0185987-2.156506-.3842658-2.967197-1.1264822-.827535-.758498-1.267396-1.7648221-1.267396-3.0865613 0-1.2992095.41004-2.3280632 1.267396-3.0865612.814108-.7365718 1.872983-1.1385686 2.967197-1.1264823 1.095345-.0185986 2.156505.3842659 2.967196 1.1264823.849901.758498 1.267396 1.7873517 1.267396 3.0865612zm-.656064 32.3600791h-7.052684v-25.1130435h7.052684zm4.010935-24.256917c1.192843-.3454546 2.750994-.6833992 4.644632-.9762846 1.97098-.3072431 3.96232-.4628971 5.956759-.4656127 2.117297 0 3.869285.2703558 5.27833.8335969 1.409046.5632411 2.527336 1.3442688 3.332505 2.3505929.827535 1.0288537 1.409046 2.2304348 1.751988 3.6272727.342943 1.3968379.506959 2.9664032.506959 4.6786561v14.186166h-7.052684v-13.3300395c0-2.3055336-.290756-3.9201581-.902088-4.873913-.611332-.953755-1.729622-1.4193676-3.35487-1.4193676-.506959 0-1.043738.0225296-1.602883.0750988s-1.073559.0976284-1.505964.1727273v19.375494h-7.052684zm40.757952 24.9177865c-5.352883 0-9.408549-1.4944664-12.204274-4.4833992-2.795726-2.9889328-4.182406-7.2245059-4.182406-12.7367589 0-2.7411067.439861-5.1667984 1.289762-7.3221343.8499-2.155336 2.020377-3.9652174 3.503976-5.4371542 1.507683-1.4886657 3.315409-2.6334942 5.300696-3.356917 2.042743-.758498 4.279324-1.1490119 6.687375-1.1490119 1.38668 0 2.654076.0976285 3.794732.3154151 1.011515.168815 2.010371.4071851 2.989563.7134387.733504.2218359 1.448862.500534 2.139662.8335968.559145.2928854.969184.510672 1.237574.6608696l-2.139662 6.0003953c-1.122649-.5852169-2.305014-1.0460157-3.526342-1.3743083-1.334493-.3905139-2.870278-.5632411-4.570079-.5632411-1.134012.0020295-2.259937.1923271-3.332505.5632411-1.086829.3915142-2.074518 1.019753-2.892645 1.8399209-.827534.8335969-1.505964 1.9375494-2.020377 3.2592885-.506958 1.3442688-.752982 2.9664032-.752982 4.8739131-.004194 1.4360437.158443 2.8676491.484592 4.2656126.342942 1.3217392.872266 2.4482214 1.602883 3.4019763.776998.982448 1.776642 1.7627832 2.91501 2.2754941 1.192843.5632411 2.654075.8335968 4.353876.8335968.967543.0025454 1.93409-.0626976 2.892645-.1952569.772513-.1027933 1.537197-.2583559 2.288767-.4656126.597009-.1532913 1.182473-.3490392 1.751988-.5857708.506958-.2177865.969185-.443083 1.364314-.6158103l2.042744 5.9778657c-1.043738.6383399-2.50497 1.201581-4.398609 1.7122529-1.930914.510672-4.137674.758498-6.620278.758498zm22.082505-26.4347826c2.09493 0 3.817097.2478261 5.203777.7134388 1.38668.4656126 2.504971 1.1490118 3.332505 2.0577075.84709.9152291 1.456598 2.0270884 1.774354 3.2367589.342943 1.2766798.506958 2.6960474.506958 4.2355731v14.7944664c-1.021371.2177866-2.408051.4881423-4.204771.7810277-1.79672.2928853-3.988569.4656126-6.53827.4656126-1.602883 0-3.061631-.1476943-4.376243-.443083-1.312127-.2928854-2.430417-.758498-3.377236-1.3968379-.937572-.6426213-1.692951-1.5199999-2.191849-2.5458498-.506959-1.0513834-.752982-2.3280633-.752982-3.867589 0-1.4719367.290755-2.6960474.872266-3.7249012.554647-.9996246 1.359072-1.8358311 2.333499-2.4256917.969185-.6158102 2.09493-1.0513834 3.354871-1.3217391 1.294224-.2756704 2.613541-.4141059 3.936381-.4130435.924454 0 1.729623.0525692 2.430418.1201581.70825.0750989 1.289761.1727273 1.729622.3154151v-.6608696c0-1.201581-.365308-2.1778656-1.095924-2.913834-.730617-.7359684-1.990557-1.1039526-3.794732-1.1039526-1.187858.002998-2.373914.0933568-3.548708.2703558-1.170477.1727272-2.191849.4130434-3.041749.7359683l-.902088-5.7300395c.41004-.1201581.924454-.2703557 1.52833-.4130435.611332-.1501976 1.289762-.2703557 2.020378-.3905138s1.483599-.1952569 2.288768-.2928854c.857355-.0300395 1.68489-.0826087 2.512425-.0826087zm.559145 20.7948617c.708251 0 1.364314-.0225296 1.990557-.0525692.505131-.0100365 1.008686-.0602587 1.505964-.1501976v-5.3920949c-.290755-.0750988-.70825-.1201581-1.289761-.1952569-.516692-.0669777-1.037203-.0995911-1.558151-.0976284-.625526.0039728-1.25031.0440914-1.871273.1201581-.581511.0750988-1.095924.2177865-1.52833.4656126-.422554.2030706-.783072.5169437-1.043737.9086957-.263143.4252371-.397837.9183846-.387674 1.4193676 0 1.1039525.365308 1.8849802 1.11829 2.3055335.752982.4731226 1.774354.6683795 3.064115.6683795zm21.225149-.1201581c1.289762 0 2.214215-.1201581 2.750994-.3905138.53678-.2478261.805169-.7584981.805169-1.4719368 0-.5632411-.342942-1.0814229-1.043737-1.4944664-.708251-.443083-1.751988-.9086957-3.1834-1.4418972-1.095924-.4130435-2.117296-.8335969-3.011928-1.2992095-.902088-.443083-1.677436-.9762846-2.288768-1.5920949-.637746-.6313813-1.135719-1.3914913-1.461232-2.2304348-.342943-.8561265-.506959-1.8849802-.506959-3.1090909 0-2.3505929.872267-4.2130435 2.601889-5.5873518s4.107853-2.0577075 7.149602-2.0577075c1.460863.0014898 2.918425.1397658 4.353877.4130435 1.38668.2703557 2.50497.5632411 3.310139.8786561l-1.237574 5.5347826c-.876136-.3070037-1.769918-.5602996-2.676442-.758498-1.062654-.2345426-2.147733-.3503935-3.235586-.3454545-2.214215 0-3.310139.6158103-3.310139 1.8624506-.004772.2606692.046076.5193318.149105.758498.129134.2574382.321647.4772181.559145.6383399.36988.2549022.761591.4760681 1.170477.6608696.60732.2986346 1.232251.5594668 1.871273.7810276 1.558151.5857708 2.818091 1.1490119 3.839463 1.712253s1.79672 1.1790514 2.385686 1.8098814c.562068.6200867.984256 1.3553614 1.237574 2.155336.246024.7810277.365309 1.712253.365309 2.7711463 0 2.4707509-.924454 4.3632411-2.77336 5.6098814-1.848907 1.2766798-4.450795 1.9075099-7.828032 1.9075099-2.214215 0-4.063121-.195257-5.516899-.5632412-1.461232-.3905138-2.482604-.7134387-3.064115-.9537549l1.192843-5.7826087c1.200634.4747399 2.437224.8514482 3.697813 1.1264822 1.209326.3046891 2.451235.4585427 3.697813.4581028zm13.210736 5.0992095v-35.8897233l7.052684-1.1490119v12.03083c.599475-.1903733 1.20933-.3458345 1.82654-.4656126.711788-.1442078 1.435988-.2171583 2.162028-.2177866 2.020378 0 3.697813.2703558 5.032306.8335969 1.334494.5632411 2.408052 1.3442687 3.213221 2.3505929.805169 1.0288537 1.364314 2.2304347 1.699801 3.6272727.342943 1.3968379.484593 2.9664031.484593 4.6786561v14.186166h-7.052684v-13.3375494c0-2.3055336-.290756-3.9201581-.872266-4.873913-.581511-.953755-1.677436-1.4193676-3.235587-1.4193676-.59585-.0057797-1.190629.0521199-1.774354.1727272-.559145.1201582-1.043737.2177866-1.483598.3679842v19.0826087h-7.052684zm-235.2978878.9095217c10.2800696-7.2579249 12.7728131-21.5363122 5.5677435-31.8916877-1.517911-2.1815018-3.4020856-4.0794535-5.5677435-5.6084546h17.0821819v37.5001423zm-35.76158055-18.753c-.00605641 7.4675217 3.60975425 14.4670988 9.68439365 18.7472925h-17.1011183v-37.4944348h17.1008946c-6.0744819 4.2802392-9.69019058 11.2797245-9.68416995 18.7471423zm22.71359345 18.724838c-10.2713846 0-18.5979871-8.3875984-18.5979871-18.7342253 0-10.346627 8.3266025-18.7342253 18.5979871-18.7342253s18.5979871 8.3875983 18.5979871 18.7342253c0 10.3466269-8.3266025 18.7342253-18.5979871 18.7342253zm8.7228877-17.9559763-.0103629-.0193755-.0017147-.0032293c-.0063369-.0195257-.0109592-.0398774-.0181163-.0609802l-.0008201-.0015771-.0009691-.0016522-.0008201-.0016521-.0008201-.0017273-.0008946-.0015771-.0008947-.0016521-.0017147-.0031542c-.2182787-.7354697-.6510873-1.3878161-1.2421968-1.8722885l-.0008946-.0016522c-.0175199-.0133676-.0358599-.0283874-.0533052-.0419051l-.0241551-.0180989-.0175198-.0133676-.0074553-.0063834-.0165507-.0117154-.0074553-.0063834-.0166252-.0117905-.0074553-.0063834-.0174453-.0134427-.00917-.0054071-.0175199-.0134427-.00917-.0054071-.0190854-.0125415-.00917-.0054071-.0111829-.0168972-.0099901-.0070593-.0190855-.0126166-.00999-.0069842-.0191601-.0126166-.00999-.0070593-.0191601-.0124664-.0099155-.0071344-.0199801-.0141186-.0099901-.0071344-.0216202-.0132924-.0099155-.0070593-.0216203-.0132174-.0099901-.0071344-.0215457-.0132174-.0099901-.0070593-.0216202-.0133676-.0116303-.006083-.0215457-.0132925-.0116302-.0062332-.0231113-.0123913-.0117048-.0062332-.0239314-.0139684-.0117048-.0061581-.0240805-.0140434-.0115557-.0061581-.0240805-.0140435-.0123757-.0075099-.0240806-.0139684-.0123757-.0075099-.0256461-.0132174-.0124503-.0075098-.0255716-.0131423-.0173708-.0093123-.0008946-.0015771c-.0123758-.0075098-.0255716-.0132174-.0380964-.0211027-.5317484-.2753752-1.1058961-.4581896-1.6981611-.5407115.1660371-.1798581.3180771-.3723297.4547714-.5757075l.0218439-.032668.0016402-.0009012.0101392-.0159209.0131958-.0217036.0074553-.0099881.0131212-.0218538.007008-.0099881.0131213-.0217036.0074552-.0100632.0131959-.0217787.0070079-.0100632.0131958-.0217036.007008-.0101383.0116302-.0208024.007008-.0100632.0116302-.0208024.0053678-.0092371.0116302-.0208024.0054423-.0091621.0115557-.0208023.0054423-.0092372.0099901-.0200514.0052932-.009162.0100647-.0199763.0053678-.0091621.00999-.0199763.0053678-.0092371.0108847-.0183241.0054423-.0092372.0108102-.0184743.0054423-.0090869.0092446-.0174981.0053678-.0092371.0092445-.0174229.0038767-.008336.0092446-.017498.0038021-.008336.0092446-.0174229.0038767-.0082609.0092445-.017498.0038022-.008336.0074553-.0165968.0038767-.008336.0074553-.0166719.0038768-.008336.0074552-.0165968.0038022-.008336.0084245-.0191502.0114065-.0249328c.0084245-.0190751.0149106-.0375494.0235587-.0564743l.0016401-.0009012c.2548756-.632744.3146284-1.3281531.1714712-1.9956008l-.0008946-.0016522-.0017147-.0032292-.0008947-.0015771-.0009692-.0017273-.0017892-.0033043-.0008947-.0015771-.0008946-.0016522c-.0033834-.0186915-.0077383-.0371912-.0130467-.0554229v-.0040553l-.0009692-.0016522-.0008946-.0017273-.0008947-.0016522.0008947.0016522-.0074553-.0144189c-.005666-.0260593-.0114066-.0521937-.0195328-.0789289-.0055914-.0260593-.0137922-.0530198-.0210984-.0781028l-.0094682-.0177233-.0017147-.0033043c-.0053678-.0178736-.0108847-.0357471-.0162525-.0536206l-.0008946-.0015771-.0009692-.0016521-.0044732-.0082609c-.1938611-.6544044-.5788995-1.2348189-1.1049453-1.6656166l-.0008946-.0016522c-.0149106-.0126166-.0316104-.0244822-.04667-.0370988l-.0208748-.0157707-.0166252-.0117906-.0074553-.0063083-.014165-.0110395-.0074553-.0063834-.0140904-.0110395-.0074553-.0063083-.0145378-.0096127-.0074552-.0063834-.0166253-.0117905-.0074552-.0063083-.0166253-.0117905-.0074553-.0063834-.0166252-.0117154-.00917-.0054822-.0166252-.0117154-.0090209-.0054822-.0166253-.0117906-.0091699-.0054822-.0182654-.0108893-.0090955-.0054822-.0183399-.0109644-.00917-.0053321-.0181909-.0110395-.00917-.0054071-.0182654-.0110395-.0090954-.005332-.01916-.0126166-.00917-.0053321-.0190855-.0126166-.00917-.0054071-.0207256-.0117154-.00917-.0054071-.0206511-.0117154-.0099901-.0070593-.0207256-.0117154-.0099901-.0071344-.0206511-.0116403-.00999-.0071344-.0216203-.0132174-.0115557-.0061581-.0216202-.0132174-.0116303-.0062332-.0231858-.0124664-.0115557-.0061581-.0231859-.0124664-.0165507-.0075099-.0008946-.0016522-.0347416-.0186245c-1.0155566-.5316996-2.3058399-.6918102-3.6041004-.3559683l-.3377236.0873399-.8551193-3.3503834-1.9792247.5111225.8513171 3.3373162-1.5834244.4090633-.851839-3.3276285-1.9792992.5111976.8513917 3.3372411-4.0821322 1.0582174.5431163 2.1263478 1.6448558-.4255098c.544444-.1411975 1.099441.188901 1.2396621.7373201v.0016522l2.2827286 8.9473478c.0932694.3661097-.1254498.739137-.4887674.8335969l-1.4411034.3733913.0846919 2.5290276 4.0771371-1.0554387.8625746 3.3311581 1.9784046-.5127747-.8522118-3.3387431 1.5833499-.4090632.8526591 3.3383676 1.9784045-.5126996-.854821-3.3518854c.335487-.0880909.6235586-.1632648.8230616-.2152332 1.4630219-.3787984 2.6460984-1.243336 3.362326-2.3205534l.0241551-.0359723.0016402-.0009012.0116302-.016747.0155815-.025083.0074553-.0124664.0155815-.025083.0074553-.0124664.0139413-.024257.0074553-.0125415.0138668-.0241818.0061878-.0117154.0139414-.0241818.0060388-.0117905.0139413-.0241068.0061879-.0117905.0123012-.0233557.0061879-.0116403.0123011-.0232806.0061134-.0117155.0132703-.0217786.0060388-.0117154.0131958-.0217036.0061134-.0117154.0116302-.0208775.0061133-.0116403.0116302-.0208024.0061133-.0117905.0116303-.0208023.0045477-.0107392.0117047-.0209525.0045478-.0107392.0099155-.0199763.0054423-.0092371.0099901-.0201265.0054423-.0091621.0099155-.0200513.0054424-.0092372.00999-.0199763.0053678-.009162.0099155-.0200514.0054424-.0092372.00999-.0199763.0054424-.0092371.0083499-.0190751.0052932-.0092372.0083499-.0191502.0038768-.0082608.0091699-.0216285.0121521-.0274111c.00917-.0215533.0192346-.0416798.0266899-.062332l.000671-.0024031c.2863537-.7117954.3537564-1.4938472.1934642-2.2447036l-.0008201-.001502-.0009692-.0016521-.0008201-.0017273-.0008946-.0015771-.0017893-.0033043-.00082-.0016522-.0008947-.0016522c-.0046719-.0200263-.0093688-.0403781-.0140904-.0610553v-.0041305l-.0008947-.001577-.0008946-.0016522-.0008201-.0017273-.0008946-.0016521-.0008946-.0015771-.0009692-.0016522-.0007456-.0016522-.0008946-.0017272-.0008946-.0015771-.0008947-.0016522-.00082-.0016522-.0008947-.0016521-.0008946-.0015771-.003504-.0064585c-.0074552-.0292886-.0131212-.0594783-.0223658-.0879407.0002237-.0171226-.0039513-.047838-.0057405-.0825336zm-11.6296969-5.9859012c.3377237-.0873399 1.7338718-.4406048 2.1943837-.5611383.7318837-.1887985 1.4530319-.115502 2.0163519.1577075l.0189364.0084861.0082754.0039052.0116302.0061581.0057405.003079.0117048.0062332.0057406.0030791.0117047.0062332.0057406.0031541.0116302.0061581.0058151.0031542.0116302.0061581.0057406.0031541.0117048.0061581.0057405.0031542.0116302.0061581.0058152.0031541.0116302.006083.0057405.0032293.0117048.0061581.0057406.0031541.00999.0070593.0058151.0031542.0099901.0070593.0058151.003079.0099901.0071344.0058151.0030791.0091699.0054822.0057406.003079.00917.0054822.0058151.0030791.00917.0054822.0058151.0031542.00917.0054071.0057405.0031541.0092445.0054071.0041004.0039803.00917.0054071.0033549.0024031.0090954.0054823.0033549.002328.00917.0054822.0032803.0024032.00917.0054071.0034294.0024032.0074553.0063834.0032803.002328.00917.0054823.0125248.0075098c.0090954.0054822.0174453.0135178.0265408.0189249.2882369.2192277.5000293.5248872.6049204.8730237l.0026094.0048815c.0027584.0089367.006337.0195257.0090209.0284624l.0008946.0015771.0051441.0097628c.0036531.0150198.0081263.0268103.0118539.0414546.003906.0147459.0064025.0298344.0074553.0450593l.0052187.0097628.0008946.0016522c.0013925.0100369.0038931.0198858.0074553.0293636l.0026093.0048064c.0739714.3558533.0344949.7261492-.1127982 1.0580672l-.0128976.0300395-.0068589.0141937-.0054423.009162-.0014165.0048814-.0038767.008336-.0014911.0050316-.0053678.009087-.001491.0049565-.0053678.0091621-.0014911.0050316-.0054423.009162-.0014165.0050317-.0053678.0090869-.0015656.0049565-.0052933.009087-.001491.0050316-.0054424.009087-.0030566.0059328-.0054424.009162-.0030566.0058577-.0054424.0091621-.0030567.0059328-.0054423.0092371-.0031312.0058578-.007008.0099881-.0030566.0058577-.0074553.0100632-.0031312.0058578-.007008.0099881-.0031312.0059328-.0070079.0099881-.0031312.0059329-.0074553.0099881-.0030567.0059328-.0070079.0099881-.0031312.0058577-.007008.0100633-.0031312.0057826-.0070079.0100632-.0030567.0058577-.0086481.0109645-.0031312.0058577-.0085736.0109644-.0031312.0058577-.0085736.0109644-.0030566.0058578-.0085736.0109644-.006337.0075099-.0117047.016747c-.3640408.5136759-.9605368.9288221-1.692346 1.1173953-.461332.1190316-1.8537524.4868656-2.1914761.5742806zm7.7367794 6.8602767.0050696.0096877.0008946.0016522c.0020129.0114901.0046968.0203518.0066352.0317668l.0017892.0033043.0008947.0017273.0008946.0015771c.0781442.3925513.0220416.80019-.15917 1.1565217l-.0177435.0324427-.008499.0150198-.0060388.0117154-.0032058.0058577-.0053677.0092372-.0031313.0058577-.0053678.0092371-.0031312.0057826-.0074552.0101384-.0030567.0057826-.0070079.0100632-.0031313.0058577-.0070079.0099882-.0031312.0059328-.007008.0099881-.0030566.0059328-.0074553.0099882-.0030567.0058577-.0070825.0100632-.0031312.0058577-.0070079.0099882-.0031312.0058577-.0074553.0100632-.0030567.0058577-.0070079.0100633-.0031312.0058577-.0085736.0109644-.0030567.0058577-.0086481.0109644-.0031312.0057826-.0074553.0125415-.0031312.0059328-.0074552.0124664-.0030567.0058578-.0074553.0125415-.0046968.0066837-.0074553.0124665-.0046968.0066837-.0093936.0134427-.0046968.0066838-.0093937.0134427-.0046222.0066838-.0140905.0200514-.0093936.0134427-.0046223.0066838-.0094682.0134427-.0074553.008411-.0149105.0183992c-.4420974.5686483-1.1555666 1.0363637-2.0211232 1.2603083-.5460985.142087-2.1962476.576834-2.5977883.6800949l-1.1234344-4.4033439c.4007207-.1051383 2.055492-.5232885 2.6018887-.6653004.8660785-.2239446 1.7162773-.160411 2.3735338.1221858l.0213966.0093123.0108101.004581.015507.0061581.0074552.0021779.0140905.006909.0074553.002253.0140159.0069091.0074552.0021779.0140905.0069842.0058151.003079.0140905.0069842.0058151.003079.0140159.0069091.0058151.0032293.0140904.006834.0057406.0031541.0117048.0061581.0057405.0031542.0117048.0061581.0057406.0031541.0116302.0061581.0057405.0031542.0117048.0061581.0057406.0031541.0117047.0061581.0057406.0031542.0116302.0061581.0058151.0031541.0116302.0061582.0057406.0031541.0117048.0061581.0057405.0031542.0174453.0092371.0099156.0071344.0058151.003079.00999.0075099.0058151.0030791.0099901.0071344.0058151.003079.0099901.0075099.0058151.0031541.00999.0069842.0057406.0032293.0090954.0054071.0058151.0031542.0099901.0070592.0133449.0094625c.0099901.0070593.0215457.0132925.0315358.0203518.3288463.224568.5728068.5543837.6923708.9360316l.0034294.0063834c.0036531.0105138.0062624.0195257.0097664.0300395l.0008946.0016522.0052187.0096877c.0036531.0146443.0074553.0292886.0118539.0454348.0074553.0016522.0084244.0196008.0058897.0419052z"/></svg>