<svg height="100" viewBox="0 0 300 100" width="300" xmlns="http://www.w3.org/2000/svg"><path d="m92.0121942 37.74816c2.5194175 0 4.6961165.4509091 6.5252427 1.3362424 1.8378641.8940606 3.3543691 2.0984243 4.5708741 3.6130909 1.2 1.5224243 2.093204 3.3018182 2.669903 5.3410909.572815 2.045091.860194 4.243394.860194 6.5968485 0 3.6150303-.663107 7.0303031-2.001942 10.249697-1.338835 3.2242424-3.15534 6.0208485-5.4660194 8.406303-2.3087379 2.3825455-5.0349515 4.2608485-8.1786408 5.6484849-3.1388349 1.388606-6.5514563 2.0829091-10.215534 2.0829091-.4737864 0-1.3067961-.0135758-2.4834951-.0378182s-2.5291262-.1454546-4.0436893-.3500606c-1.5242719-.2123637-3.1359224-.5265455-4.8378641-.947394-1.7009709-.4130909-3.3165049-.992-4.8378641-1.7270303l13.6038835-57.0918788 12.184466-1.8860606-4.8708737 20.2598788c1.0427184-.4693333 2.0932038-.8329697 3.1417475-1.0976969 1.0495146-.2608485 2.1757282-.3966061 3.3796117-.3966061zm-10.2203884 33.6203636c1.8349515 0 3.5640777-.4509091 5.1883495-1.3362424 1.6291263-.886303 3.0349515-2.0829091 4.2126214-3.5733333 1.1776699-1.4972121 2.1097087-3.1835152 2.7893204-5.0676364.6796116-1.8841212 1.023301-3.849697 1.023301-5.8947879 0-2.5124848-.4203884-4.4722424-1.2582525-5.8889697-.837864-1.4109091-2.3883495-2.1207272-4.6398058-2.1207272-.7378641 0-1.6883495.140606-2.8669903.3917575-1.1825243.2666667-2.2407767.8203637-3.1893204 1.6533334l-5.1864077 21.5156363c.3126213.0552728.5893203.1076364.8252427.1570909.2310679.0533334.4864077.0911516.7407767.1173334.268932.0300606.576699.0455757.9485437.0455757.3718446 0 .8368932.0009697 1.4126213.0009697zm37.4825242 8.5614546h-11.637864l9.828155-41.3061818h11.717476zm5.663107-46.3389091c-1.624272 0-3.097087-.4829091-4.403884-1.4506667-1.317475-.9619394-1.969903-2.4426666-1.969903-4.438303 0-1.097697.223301-2.1275152.66602-3.0991515.449514-.969697 1.036893-1.8046061 1.772815-2.5144243.734952-.704 1.586408-1.2664242 2.553398-1.6901818.972816-.4169697 2.007767-.6254545 3.11068-.6254545 1.623301 0 3.08835.4829091 4.4 1.4506666 1.306796.9726061 1.964078 2.4533334 1.964078 4.4383031 0 1.1015757-.22233 2.1352727-.668932 3.1049697-.44369.9696969-1.031068 1.804606-1.766991 2.5144242-.729126.7049697-1.588349 1.2654546-2.553398 1.6853333-.973786.4237576-2.004854.6244849-3.103883.6244849zm14.443689-5.2586667 12.189321-1.8860606-2.993204 12.1755152h13.054369l-2.357282 9.5786666h-12.975728l-3.456311 14.4484849c-.318446 1.2043636-.499029 2.3292121-.549514 3.3745454-.057282 1.0501819.075728 1.952.390291 2.7112728.312621.7612121.874757 1.3478788 1.690291 1.7629091.811651.4218181 1.973787.6341818 3.498058.6341818 1.25534 0 2.478641-.1192728 3.661166-.3558788 1.175728-.2327273 2.36699-.5566061 3.572815-.9803636l.867961 8.9561212c-1.572815.576-3.275728 1.0715151-5.110679 1.4884848-1.837864.4227879-4.013593.6264243-6.528156.6264243-3.615534 0-6.418446-.5362425-8.415534-1.6038788-1.994174-1.075394-3.403883-2.5444849-4.247573-4.4043637-.832038-1.8530909-1.203883-3.9893333-1.1-6.3961212.107767-2.412606.471845-4.9483636 1.1-7.6189091zm21.737864 35.1030303c0-3.5578182.576699-6.9129697 1.729127-10.0538182 1.150485-3.1437575 2.807766-5.8928484 4.958252-8.2521212 2.142718-2.3476363 4.753398-4.2075151 7.826214-5.5728485 3.058252-1.3575757 6.482524-2.0421818 10.25631-2.0421818 2.362136 0 4.471845.2230303 6.328156.6700606 1.864077.4509091 3.550485 1.033697 5.075728 1.7648485l-4.013593 9.1151515c-1.048543-.4247272-2.136893-.7990303-3.262135-1.1384242-1.126214-.3461818-2.500971-.5129697-4.127185-.5129697-3.884466 0-6.95534 1.3372121-9.240777 4.0029091-2.276699 2.6676364-3.423301 6.2584242-3.423301 10.7626667 0 2.6695757.576699 4.8281212 1.733981 6.4795151 1.151456 1.6513939 3.278641 2.4727273 6.36699 2.4727273 1.524272 0 2.995146-.1590303 4.403884-.4693334 1.419417-.3141818 2.672815-.7098181 3.776699-1.1772121l.868932 9.344c-1.471845.5701818-3.095146 1.0850909-4.875728 1.536-1.784466.435394-3.908738.6613334-6.371845.6613334-3.251456 0-6.003883-.4751516-8.25534-1.4109091-2.252427-.9503031-4.113592-2.2118788-5.579611-3.8099394-1.473787-1.6019394-2.532039-3.4724849-3.186408-5.619394-.654369-2.1449697-.98835-4.3985454-.98835-6.7500606zm51.699029 17.5903031c-2.777669 0-5.190291-.4227879-7.236893-1.2596364-2.040776-.8368485-3.731068-2.0111515-5.067961-3.5335758-1.338835-1.5146666-2.340777-3.3095757-3.027184-5.3779394-.686408-2.0673939-1.016505-4.3568484-1.016505-6.8654545 0-3.1466667.505825-6.2923636 1.528155-9.4293333 1.017476-3.1437576 2.527185-5.9684849 4.525243-8.4790303 1.982524-2.5144243 4.428155-4.5701819 7.307767-6.1730909 2.876699-1.5922425 6.185437-2.3932122 9.901942-2.3932122 2.727184 0 5.127184.4237576 7.201941 1.2606061 2.065049.8349091 3.76602 2.0189091 5.11068 3.5335757 1.330097 1.5224243 2.340777 3.3095758 3.020388 5.3808485.684466 2.0635152 1.02233 4.3587879 1.02233 6.8693334 0 3.1369697-.499029 6.2826666-1.48932 9.4293333-.991262 3.1311515-2.462136 5.9626667-4.403884 8.4790303-1.937864 2.5105455-4.361165 4.5653333-7.271844 6.1614545-2.906796 1.5961213-6.27767 2.397091-10.104855 2.397091zm5.816505-33.6116364c-1.725242 0-3.250485.5003636-4.55631 1.4884848-1.31068.9997576-2.411651 2.2564849-3.29903 3.7721213-.897087 1.5224242-1.562135 3.1825454-2.01165 4.9871515-.445631 1.8084848-.664078 3.5180606-.664078 5.142303 0 2.6210909.423301 4.662303 1.25534 6.1313939.843689 1.4613334 2.359223 2.1963637 4.562136 2.1963637 1.731068 0 3.248544-.4964849 4.562136-1.4952728 1.302913-.992 2.404854-2.2496969 3.299029-3.7682424.891262-1.5146666 1.562136-3.1796363 2.011651-4.9871515.439805-1.8026667.664077-3.5219394.664077-5.1432727 0-2.614303-.421359-4.6603637-1.261165-6.1275152-.838835-1.4613333-2.361165-2.1963636-4.562136-2.1963636zm30.134952 32.5158788h-11.647573l9.828155-41.3061818h11.723301zm5.654369-46.3389091c-1.623301 0-3.095146-.4829091-4.4-1.4506667-1.31068-.9619394-1.968932-2.4426666-1.968932-4.438303 0-1.097697.226213-2.1275152.669903-3.0991515.443689-.969697 1.034951-1.8046061 1.770873-2.5144243.731068-.704 1.590292-1.2664242 2.55534-1.6901818.96699-.4169697 2.001942-.6254545 3.100971-.6254545 1.627184 0 3.097087.4829091 4.405825 1.4506666 1.309709.9726061 1.970874 2.4533334 1.970874 4.4383031 0 1.1015757-.234951 2.1352727-.674757 3.1049697-.439806.9696969-1.031068 1.804606-1.764078 2.5144242-.737864.7049697-1.586408 1.2654546-2.553398 1.6853333-.974757.4237576-2.007767.6244849-3.112621.6244849zm12.636893 6.9110303c.883495-.2579394 1.869903-.5682424 2.942718-.905697 1.076699-.3374545 2.279612-.6516363 3.623301-.9347879 1.329126-.2918787 2.829126-.5284848 4.478641-.7117575 1.649515-.1871515 3.529126-.2783031 5.617476-.2783031 6.137864 0 10.368932 1.7852122 12.704854 5.3449697 2.333981 3.5597576 2.737864 8.4315152 1.223301 14.6065455l-5.353398 22.3030303h-11.714563l5.188349-21.833697c.316505-1.3633939.565049-2.6812121.748544-3.9689697.185437-1.2761212.174757-2.4009697-.041747-3.3745454-.206797-.9619394-.694175-1.7493334-1.450486-2.3592728-.767961-.6002424-1.928155-.9018181-3.501942-.9018181-1.517475 0-3.061165.1629091-4.636893.4770909l-7.628155 31.9602424h-11.719418zm-204.893204 17.0084848c-4.1495146 16.6235152-21.0067961 26.7403637-37.6524272 22.5949091-16.63883496-4.1444848-26.76796117-20.982303-22.61650486-37.6048485 4.14757282-16.6254545 21.00485436-26.7432727 37.64563106-22.5987878 16.6446602 4.1444848 26.7728155 20.9842424 22.623301 37.6087272zm-16.4368932-11.9272727c.6184466-4.1289697-2.5291262-6.348606-6.8330097-7.8293333l1.3961165-5.5932121-3.4087379-.8484849-1.3592233 5.4458182c-.8961165-.2230303-1.8165048-.4334546-2.731068-.6419394l1.3689321-5.481697-3.4067961-.8484848-1.3970874 5.5912727c-.7417476-.1687273-1.4699029-.3355151-2.176699-.5110303l.0038835-.0174545-4.7009709-1.1723637-.9067961 3.6363637s2.5291262.5789091 2.4757281.6147878c1.3805825.3442425 1.6300971 1.2567273 1.5883495 1.9801213l-1.5902912 6.3718787c.0951456.0242425.2184466.0591516.3543689.1134546-.1135922-.0281212-.2349515-.0591515-.3601942-.0892121l-2.2291262 8.9260606c-.168932.4189091-.5970874 1.0472727-1.5621359.8087272.0339806.0494546-2.4776699-.6176969-2.4776699-.6176969l-1.692233 3.8972121 4.4359223 1.1044848c.8252427.2065455 1.6339806.4227879 2.4300971.6264243l-1.4106796 5.6572121 3.4048544.8484849 1.3970873-5.597091c.9300971.2521213 1.8330097.4848485 2.7165049.704l-1.392233 5.5709091 3.4087378.8484849 1.4106797-5.6465455c5.8126213 1.0986667 10.1834951.6555152 12.0233009-4.5953939 1.4825243-4.2278788-.0737864-6.6666667-3.1320388-8.2569697 2.2271845-.5129697 3.9048544-1.9762424 4.3524272-4.9987879zm-7.7883495 10.9081212c-1.0533981 4.2278788-8.1805826 1.9423031-10.4912622 1.3692121l1.8718447-7.4947878c2.3106796.576 9.7203883 1.7163636 8.6194175 6.1255757zm1.0543689-10.9692121c-.9611651 3.8458182-6.8932039 1.8918788-8.8174757 1.4128485l1.6970873-6.7975758c1.9242719.4790303 8.1213593 1.3730909 7.1203884 5.3847273z"/></svg>