<svg xmlns="http://www.w3.org/2000/svg" width="300" height="100" viewBox="0 0 300 100" role="img">
  <path d="M77.1392147,68.4517787 C75.342495,68.4517787 73.5383201,68.3992095 71.7639662,68.2790514 C69.8915197,68.1525291 68.030428,67.8915232 66.1948807,67.4980237 L66.1948807,35.43083 C67.7008449,35.1379447 69.3782803,34.9426877 71.1824553,34.7924901 C72.979175,34.6422925 74.6566103,34.5747036 76.2147614,34.5747036 C78.3096918,34.5747036 80.2256958,34.7249012 81.9776839,35.0403162 C83.729672,35.3332016 85.2356362,35.8513834 86.5030318,36.5798419 C87.7704274,37.3158103 88.7619781,38.2695652 89.4702286,39.4711462 C90.1784791,40.6727273 90.5437873,42.144664 90.5437873,43.8794466 C90.5437873,46.5229249 89.2788767,48.6056653 86.7490557,50.127668 C88.8439861,50.9086957 90.2530318,52.0126482 91.0060139,53.3644269 C91.758996,54.7387352 92.14667,56.2782609 92.14667,57.9905138 C92.14667,61.4675889 90.8792744,64.0660079 88.3743042,65.8083004 C85.8246024,67.5956522 82.1044235,68.4517787 77.1392147,68.4517787 Z M73.39667,47.9498024 L76.9975646,47.9498024 C79.286332,47.9498024 80.8892147,47.656917 81.8882207,47.0711462 C82.8574056,46.4853755 83.3494533,45.5316206 83.3494533,44.2324111 C83.3494533,42.8881423 82.842495,41.956917 81.8434891,41.4162055 C80.8221173,40.8754941 79.3385189,40.6051383 77.3926938,40.6051383 C76.758996,40.6051383 76.0805666,40.6051383 75.3499503,40.627668 C74.619334,40.6501976 73.9856362,40.6802372 73.4041252,40.7478261 C73.39667,40.7478261 73.39667,47.9498024 73.39667,47.9498024 Z M73.39667,53.6347826 L73.39667,62.1810277 C73.9334493,62.2561265 74.5149602,62.3011858 75.1486581,62.3312253 C75.7823559,62.3612648 76.4831511,62.3837945 77.2435885,62.3837945 C79.4578032,62.3837945 81.2321571,62.0683794 82.5964712,61.4300395 C83.9607853,60.7916996 84.6392147,59.6201581 84.6392147,57.9003953 C84.6392147,56.3833992 84.0800696,55.2794466 82.9394135,54.6411067 C81.7987575,53.9802372 80.1660537,53.6648221 78.0487575,53.6648221 L73.4041252,53.6648221 L73.4041252,53.6347826 L73.39667,53.6347826 Z M102.673509,35.6786561 C102.673509,36.9778656 102.263469,38.0067194 101.406113,38.7652174 C100.578579,39.5237154 99.5795726,39.8916996 98.4389165,39.8916996 C97.3435712,39.9102983 96.2824109,39.5074338 95.4717197,38.7652174 C94.6441849,38.0067194 94.2043241,37.0003953 94.2043241,35.6786561 C94.2043241,34.3794466 94.6143638,33.3505929 95.4717197,32.5920949 C96.2858278,31.8555231 97.3447026,31.4535263 98.4389165,31.4656126 C99.5342618,31.447014 100.595422,31.8498785 101.406113,32.5920949 C102.256014,33.3505929 102.673509,34.3794466 102.673509,35.6786561 Z M101.99508,68.0387352 L94.9423956,68.0387352 L94.9423956,42.9256917 L101.99508,42.9256917 L101.99508,68.0387352 Z M105.789811,36.6774704 L112.842495,35.5284585 L112.842495,42.9256917 L121.32659,42.9256917 L121.32659,48.8509881 L112.842495,48.8509881 L112.842495,57.6675889 C112.842495,59.1620553 113.110885,60.3636364 113.617843,61.2422925 C114.124801,62.1209486 115.19836,62.5865613 116.778877,62.5865613 C117.561516,62.5824451 118.342308,62.5095734 119.112376,62.3687747 C119.864216,62.2307723 120.604455,62.0349422 121.32659,61.783004 L122.325596,67.3177866 C121.400869,67.6939132 120.448747,67.9977108 119.477684,68.2264822 C118.433946,68.4743083 117.166551,68.616996 115.638221,68.616996 C113.714761,68.616996 112.111879,68.3466403 110.844483,67.8359684 C109.577087,67.3252964 108.555716,66.5893281 107.802734,65.6280632 C107.049751,64.6968379 106.512972,63.5478261 106.222217,62.226087 C105.910612,60.7701527 105.755642,59.2846363 105.75999,57.7952569 L105.75999,36.6774704 L105.789811,36.6774704 Z M122.325596,55.4897233 C122.313508,53.7439599 122.608835,52.0098681 123.197863,50.3679842 C123.747629,48.8120669 124.607725,47.3859637 125.725199,46.1774704 C126.821123,44.9758893 128.177982,44.044664 129.758499,43.3387352 C131.339016,42.6252964 133.135736,42.2873518 135.156113,42.2873518 C136.490606,42.2873518 137.705815,42.4075099 138.80174,42.655336 C139.901934,42.898056 140.977562,43.2424657 142.01496,43.6841897 L140.553728,49.36917 C139.837113,49.1042443 139.105141,48.8835456 138.361879,48.7083004 C137.492135,48.5032967 136.600979,48.4049549 135.707803,48.415415 C133.612873,48.415415 132.062177,49.0762846 131.040805,50.3754941 C130.019433,51.6747036 129.512475,53.3869565 129.512475,55.5197628 C129.512475,57.7727273 129.997068,59.5375494 130.943887,60.7616601 C131.913072,62.0083004 133.597962,62.6241107 135.976193,62.6241107 C136.89858,62.6217884 137.819028,62.5388689 138.727187,62.3762846 C139.653742,62.2334441 140.559862,61.9787799 141.425994,61.6177866 L142.425,67.4454545 C141.428023,67.8489323 140.394281,68.1532779 139.338519,68.3541502 C137.99266,68.6186995 136.624267,68.7494982 135.253032,68.744664 C132.964264,68.744664 131.018439,68.3992095 129.370825,67.7158103 C127.715755,67.0324111 126.381262,66.1011858 125.307704,64.9221344 C124.234145,63.743083 123.481163,62.3537549 122.996571,60.7541502 C122.551988,59.035144 122.326517,57.2661077 122.325596,55.4897233 Z M166.729175,55.444664 C166.729175,57.4272727 166.438419,59.2146245 165.879274,60.8592885 C165.320129,62.5039526 164.492594,63.8932806 163.426491,65.0498024 C162.341113,66.2147041 161.022166,67.1337219 159.557207,67.7458498 C158.043787,68.3841897 156.373807,68.6996047 154.524901,68.6996047 C152.69836,68.6996047 151.020924,68.3841897 149.51496,67.7458498 C148.049561,67.1345336 146.730455,66.2154044 145.645676,65.0498024 C144.572117,63.9007905 143.722217,62.4814229 143.140706,60.8592885 C142.529374,59.2146245 142.238618,57.4047431 142.238618,55.444664 C142.238618,53.4620553 142.55174,51.6747036 143.163072,50.0525692 C143.774404,48.4379447 144.624304,47.0411067 145.712773,45.9146245 C146.813019,44.7625742 148.138013,43.8523188 149.604423,43.2411067 C151.110388,42.6027668 152.743091,42.2873518 154.517445,42.2873518 C156.314165,42.2873518 157.96675,42.6052701 159.475199,43.2411067 C160.981163,43.8794466 162.270924,44.7581028 163.344483,45.9146245 C164.451222,47.1071606 165.303733,48.5154182 165.849453,50.0525692 C166.416054,51.6747036 166.729175,53.4620553 166.729175,55.444664 Z M159.534841,55.444664 C159.534841,53.2367589 159.09498,51.5245059 158.222714,50.2778656 C157.350447,49.0312253 156.105417,48.3928854 154.502535,48.3928854 C152.899652,48.3928854 151.632256,49.0312253 150.75999,50.2778656 C149.887724,51.5245059 149.425497,53.2667984 149.425497,55.444664 C149.425497,57.6525692 149.865358,59.3873518 150.75999,60.6640316 C151.632256,61.9632411 152.899652,62.601581 154.502535,62.601581 C156.105417,62.601581 157.350447,61.9632411 158.222714,60.6640316 C159.09498,59.3648221 159.534841,57.6225296 159.534841,55.444664 Z M177.285835,35.6786561 C177.285835,36.9778656 176.875795,38.0067194 176.018439,38.7652174 C175.190905,39.5237154 174.191899,39.8916996 173.051243,39.8916996 C171.955897,39.9102983 170.894737,39.5074338 170.084046,38.7652174 C169.256511,38.0067194 168.81665,37.0003953 168.81665,35.6786561 C168.81665,34.3794466 169.22669,33.3505929 170.084046,32.5920949 C170.898154,31.8555231 171.957029,31.4535263 173.051243,31.4656126 C174.146588,31.447014 175.207748,31.8498785 176.018439,32.5920949 C176.86834,33.3505929 177.285835,34.3794466 177.285835,35.6786561 Z M176.629771,68.0387352 L169.577087,68.0387352 L169.577087,42.9256917 L176.629771,42.9256917 L176.629771,68.0387352 Z M180.640706,43.7818182 C181.833549,43.4363636 183.3917,43.098419 185.285338,42.8055336 C187.256318,42.4982905 189.247658,42.3426365 191.242097,42.3399209 C193.359394,42.3399209 195.111382,42.6102767 196.520427,43.1735178 C197.929473,43.7367589 199.047763,44.5177866 199.852932,45.5241107 C200.680467,46.5529644 201.261978,47.7545455 201.60492,49.1513834 C201.947863,50.5482213 202.111879,52.1177866 202.111879,53.8300395 L202.111879,68.0162055 L195.059195,68.0162055 L195.059195,54.686166 C195.059195,52.3806324 194.768439,50.7660079 194.157107,49.812253 C193.545775,48.858498 192.427485,48.3928854 190.802237,48.3928854 C190.295278,48.3928854 189.758499,48.415415 189.199354,48.4679842 C188.640209,48.5205534 188.125795,48.5656126 187.69339,48.6407115 L187.69339,68.0162055 L180.640706,68.0162055 L180.640706,43.7818182 Z M221.398658,68.6996047 C216.045775,68.6996047 211.990109,67.2051383 209.194384,64.2162055 C206.398658,61.2272727 205.011978,56.9916996 205.011978,51.4794466 C205.011978,48.7383399 205.451839,46.3126482 206.30174,44.1573123 C207.15164,42.0019763 208.322117,40.1920949 209.805716,38.7201581 C211.313399,37.2314924 213.121125,36.0866639 215.106412,35.3632411 C217.149155,34.6047431 219.385736,34.2142292 221.793787,34.2142292 C223.180467,34.2142292 224.447863,34.3118577 225.588519,34.5296443 C226.600034,34.6984593 227.59889,34.9368294 228.578082,35.243083 C229.311586,35.4649189 230.026944,35.743617 230.717744,36.0766798 C231.276889,36.3695652 231.686928,36.5873518 231.955318,36.7375494 L229.815656,42.7379447 C228.693007,42.1527278 227.510642,41.691929 226.289314,41.3636364 C224.954821,40.9731225 223.419036,40.8003953 221.719235,40.8003953 C220.585223,40.8024248 219.459298,40.9927224 218.38673,41.3636364 C217.299901,41.7551506 216.312212,42.3833894 215.494085,43.2035573 C214.666551,44.0371542 213.988121,45.1411067 213.473708,46.4628458 C212.96675,47.8071146 212.720726,49.429249 212.720726,51.3367589 C212.716532,52.7728026 212.879169,54.204408 213.205318,55.6023715 C213.54826,56.9241107 214.077584,58.0505929 214.808201,59.0043478 C215.585199,59.9867958 216.584843,60.767131 217.723211,61.2798419 C218.916054,61.843083 220.377286,62.1134387 222.077087,62.1134387 C223.04463,62.1159841 224.011177,62.0507411 224.969732,61.9181818 C225.742245,61.8153885 226.506929,61.6598259 227.258499,61.4525692 C227.855508,61.2992779 228.440972,61.10353 229.010487,60.8667984 C229.517445,60.6490119 229.979672,60.4237154 230.374801,60.2509881 L232.417545,66.2288538 C231.373807,66.8671937 229.912575,67.4304348 228.018936,67.9411067 C226.088022,68.4517787 223.881262,68.6996047 221.398658,68.6996047 Z M243.481163,42.2648221 C245.576093,42.2648221 247.29826,42.5126482 248.68494,42.9782609 C250.07162,43.4438735 251.189911,44.1272727 252.017445,45.0359684 C252.864535,45.9511975 253.474043,47.0630568 253.791799,48.2727273 C254.134742,49.5494071 254.298757,50.9687747 254.298757,52.5083004 L254.298757,67.3027668 C253.277386,67.5205534 251.890706,67.7909091 250.093986,68.0837945 C248.297266,68.3766798 246.105417,68.5494071 243.555716,68.5494071 C241.952833,68.5494071 240.494085,68.4017128 239.179473,68.1063241 C237.867346,67.8134387 236.749056,67.3478261 235.802237,66.7094862 C234.864665,66.0668649 234.109286,65.1894863 233.610388,64.1636364 C233.103429,63.112253 232.857406,61.8355731 232.857406,60.2960474 C232.857406,58.8241107 233.148161,57.6 233.729672,56.5711462 C234.284319,55.5715216 235.088744,54.7353151 236.063171,54.1454545 C237.032356,53.5296443 238.158101,53.0940711 239.418042,52.8237154 C240.712266,52.548045 242.031583,52.4096095 243.354423,52.4106719 C244.278877,52.4106719 245.084046,52.4632411 245.784841,52.53083 C246.493091,52.6059289 247.074602,52.7035573 247.514463,52.8462451 L247.514463,52.1853755 C247.514463,50.9837945 247.149155,50.0075099 246.418539,49.2715415 C245.687922,48.5355731 244.427982,48.1675889 242.623807,48.1675889 C241.435949,48.1705869 240.249893,48.2609457 239.075099,48.4379447 C237.904622,48.6106719 236.88325,48.8509881 236.03335,49.173913 L235.131262,43.4438735 C235.541302,43.3237154 236.055716,43.1735178 236.659592,43.03083 C237.270924,42.8806324 237.949354,42.7604743 238.67997,42.6403162 C239.410586,42.5201581 240.163569,42.4450593 240.968738,42.3474308 C241.826093,42.3173913 242.653628,42.2648221 243.481163,42.2648221 Z M244.040308,63.0596838 C244.748559,63.0596838 245.404622,63.0371542 246.030865,63.0071146 C246.535996,62.9970781 247.039551,62.9468559 247.536829,62.856917 L247.536829,57.4648221 C247.246074,57.3897233 246.828579,57.344664 246.247068,57.2695652 C245.730376,57.2025875 245.209865,57.1699741 244.688917,57.1719368 C244.063391,57.1759096 243.438607,57.2160282 242.817644,57.2920949 C242.236133,57.3671937 241.72172,57.5098814 241.289314,57.7577075 C240.86676,57.9607781 240.506242,58.2746512 240.245577,58.6664032 C239.982434,59.0916403 239.84774,59.5847878 239.857903,60.0857708 C239.857903,61.1897233 240.223211,61.970751 240.976193,62.3913043 C241.729175,62.8644269 242.750547,63.0596838 244.040308,63.0596838 Z M265.265457,62.9395257 C266.555219,62.9395257 267.479672,62.8193676 268.016451,62.5490119 C268.553231,62.3011858 268.82162,61.7905138 268.82162,61.0770751 C268.82162,60.513834 268.478678,59.9956522 267.777883,59.5826087 C267.069632,59.1395257 266.025895,58.673913 264.594483,58.1407115 C263.498559,57.727668 262.477187,57.3071146 261.582555,56.841502 C260.680467,56.398419 259.905119,55.8652174 259.293787,55.2494071 C258.656041,54.6180258 258.158068,53.8579158 257.832555,53.0189723 C257.489612,52.1628458 257.325596,51.1339921 257.325596,49.9098814 C257.325596,47.5592885 258.197863,45.6968379 259.927485,44.3225296 C261.657107,42.9482213 264.035338,42.2648221 267.077087,42.2648221 C268.53795,42.2663119 269.995512,42.4045879 271.430964,42.6778656 C272.817644,42.9482213 273.935934,43.2411067 274.741103,43.5565217 L273.503529,49.0913043 C272.627393,48.7843006 271.733611,48.5310047 270.827087,48.3328063 C269.764433,48.0982637 268.679354,47.9824128 267.591501,47.9873518 C265.377286,47.9873518 264.281362,48.6031621 264.281362,49.8498024 C264.27659,50.1104716 264.327438,50.3691342 264.430467,50.6083004 C264.559601,50.8657386 264.752114,51.0855185 264.989612,51.2466403 C265.359492,51.5015425 265.751203,51.7227084 266.160089,51.9075099 C266.767409,52.2061445 267.39234,52.4669767 268.031362,52.6885375 C269.589513,53.2743083 270.849453,53.8375494 271.870825,54.4007905 C272.892197,54.9640316 273.667545,55.5798419 274.256511,56.2106719 C274.818579,56.8307586 275.240767,57.5660333 275.494085,58.3660079 C275.740109,59.1470356 275.859394,60.0782609 275.859394,61.1371542 C275.859394,63.6079051 274.93494,65.5003953 273.086034,66.7470356 C271.237127,68.0237154 268.635239,68.6545455 265.258002,68.6545455 C263.043787,68.6545455 261.194881,68.4592885 259.741103,68.0913043 C258.279871,67.7007905 257.258499,67.3778656 256.676988,67.1375494 L257.869831,61.3549407 C259.070465,61.8296806 260.307055,62.2063889 261.567644,62.4814229 C262.77697,62.786112 264.018879,62.9399656 265.265457,62.9395257 Z M278.476193,68.0387352 L278.476193,32.1490119 L285.528877,31 L285.528877,43.03083 C286.128352,42.8404567 286.738207,42.6849955 287.355417,42.5652174 C288.067205,42.4210096 288.791405,42.3480591 289.517445,42.3474308 C291.537823,42.3474308 293.215258,42.6177866 294.549751,43.1810277 C295.884245,43.7442688 296.957803,44.5252964 297.762972,45.5316206 C298.568141,46.5604743 299.127286,47.7620553 299.462773,49.1588933 C299.805716,50.5557312 299.947366,52.1252964 299.947366,53.8375494 L299.947366,68.0237154 L292.894682,68.0237154 L292.894682,54.686166 C292.894682,52.3806324 292.603926,50.7660079 292.022416,49.812253 C291.440905,48.858498 290.34498,48.3928854 288.786829,48.3928854 C288.190979,48.3871057 287.5962,48.4450053 287.012475,48.5656126 C286.45333,48.6857708 285.968738,48.7833992 285.528877,48.9335968 L285.528877,68.0162055 L278.476193,68.0162055 L278.476193,68.0387352 Z M43.1783052,68.9482569 C53.4583748,61.690332 55.9511183,47.4119447 48.7460487,37.0565692 C47.2281377,34.8750674 45.3439631,32.9771157 43.1783052,31.4481146 L60.2604871,31.4481146 L60.2604871,68.9482569 L43.1783052,68.9482569 Z M7.41672465,50.1952569 C7.41066824,57.6627786 11.0264789,64.6623557 17.1011183,68.9425494 L2.84217094e-14,68.9425494 L2.84217094e-14,31.4481146 L17.1008946,31.4481146 C11.0264127,35.7283538 7.41070402,42.7278391 7.41672465,50.1952569 Z M30.1303181,68.9200949 C19.8589335,68.9200949 11.532331,60.5324965 11.532331,50.1858696 C11.532331,39.8392426 19.8589335,31.4516443 30.1303181,31.4516443 C40.4017027,31.4516443 48.7283052,39.8392426 48.7283052,50.1858696 C48.7283052,60.5324965 40.4017027,68.9200949 30.1303181,68.9200949 Z M38.8532058,50.9641186 L38.8428429,50.9447431 L38.8411282,50.9415138 C38.8347913,50.9219881 38.830169,50.9016364 38.8230119,50.8805336 L38.8221918,50.8789565 L38.8212227,50.8773043 L38.8204026,50.8756522 L38.8195825,50.8739249 L38.8186879,50.8723478 L38.8177932,50.8706957 L38.8160785,50.8675415 C38.5977998,50.1320718 38.1649912,49.4797254 37.5738817,48.995253 L37.5729871,48.9936008 C37.5554672,48.9802332 37.5371272,48.9652134 37.5196819,48.9516957 L37.4955268,48.9335968 L37.478007,48.9202292 L37.4705517,48.9138458 L37.454001,48.9021304 L37.4465457,48.895747 L37.4299205,48.8839565 L37.4224652,48.8775731 L37.4050199,48.8641304 L37.3958499,48.8587233 L37.37833,48.8452806 L37.36916,48.8398735 L37.3500746,48.827332 L37.3409046,48.8219249 L37.3297217,48.8050277 L37.3197316,48.7979684 L37.3006461,48.7853518 L37.2906561,48.7783676 L37.271496,48.765751 L37.261506,48.7586917 L37.2423459,48.7462253 L37.2324304,48.7390909 L37.2124503,48.7249723 L37.2024602,48.7178379 L37.18084,48.7045455 L37.1709245,48.6974862 L37.1493042,48.6842688 L37.1393141,48.6771344 L37.1177684,48.663917 L37.1077783,48.6568577 L37.0861581,48.6434901 L37.0745278,48.6374071 L37.0529821,48.6241146 L37.0413519,48.6178814 L37.0182406,48.6054901 L37.0065358,48.5992569 L36.9826044,48.5852885 L36.9708996,48.5791304 L36.9468191,48.565087 L36.9352634,48.5589289 L36.9111829,48.5448854 L36.8988072,48.5373755 L36.8747266,48.5234071 L36.8623509,48.5158972 L36.8367048,48.5026798 L36.8242545,48.49517 L36.7986829,48.4820277 L36.7813121,48.4727154 L36.7804175,48.4711383 C36.7680417,48.4636285 36.7548459,48.4579209 36.7423211,48.4500356 C36.2105727,48.1746604 35.636425,47.991846 35.04416,47.9093241 C35.2101971,47.729466 35.3622371,47.5369944 35.4989314,47.3336166 L35.5207753,47.3009486 L35.5224155,47.3000474 L35.5325547,47.2841265 L35.5457505,47.2624229 L35.5532058,47.2524348 L35.566327,47.230581 L35.573335,47.2205929 L35.5864563,47.1988893 L35.5939115,47.1888261 L35.6071074,47.1670474 L35.6141153,47.1569842 L35.6273111,47.1352806 L35.6343191,47.1251423 L35.6459493,47.1043399 L35.6529573,47.0942767 L35.6645875,47.0734743 L35.6699553,47.0642372 L35.6815855,47.0434348 L35.6870278,47.0342727 L35.6985835,47.0134704 L35.7040258,47.0042332 L35.7140159,46.9841818 L35.7193091,46.9750198 L35.7293738,46.9550435 L35.7347416,46.9458814 L35.7447316,46.9259051 L35.7500994,46.916668 L35.7609841,46.8983439 L35.7664264,46.8891067 L35.7772366,46.8706324 L35.7826789,46.8615455 L35.7919235,46.8440474 L35.7972913,46.8348103 L35.8065358,46.8173874 L35.8104125,46.8090514 L35.8196571,46.7915534 L35.8234592,46.7832174 L35.8327038,46.7657945 L35.8365805,46.7575336 L35.845825,46.7400356 L35.8496272,46.7316996 L35.8570825,46.7151028 L35.8609592,46.7067668 L35.8684145,46.6900949 L35.8722913,46.6817589 L35.8797465,46.6651621 L35.8835487,46.6568261 L35.8919732,46.6376759 L35.9033797,46.6127431 C35.9118042,46.593668 35.9182903,46.5751937 35.9269384,46.5562688 L35.9285785,46.5553676 C36.1834541,45.9226236 36.2432069,45.2272145 36.1000497,44.5597668 L36.0991551,44.5581146 L36.0974404,44.5548854 L36.0965457,44.5533083 L36.0955765,44.551581 L36.0937873,44.5482767 L36.0928926,44.5466996 L36.091998,44.5450474 C36.0886146,44.5263559 36.0842597,44.5078562 36.0789513,44.4896245 L36.0789513,44.4855692 L36.0779821,44.483917 L36.0770875,44.4821897 L36.0761928,44.4805375 L36.0770875,44.4821897 L36.0696322,44.4677708 C36.0639662,44.4417115 36.0582256,44.4155771 36.0500994,44.3888419 C36.044508,44.3627826 36.0363072,44.3358221 36.029001,44.3107391 L36.0195328,44.2930158 L36.0178181,44.2897115 C36.0124503,44.2718379 36.0069334,44.2539644 36.0015656,44.2360909 L36.000671,44.2345138 L35.9997018,44.2328617 L35.9952286,44.2246008 C35.8013675,43.5701964 35.4163291,42.9897819 34.8902833,42.5589842 L34.8893887,42.557332 C34.8744781,42.5447154 34.8577783,42.5328498 34.8427187,42.5202332 L34.8218439,42.5044625 L34.8052187,42.4926719 L34.7977634,42.4863636 L34.7835984,42.4753241 L34.7761431,42.4689407 L34.7620527,42.4579012 L34.7545974,42.4515929 L34.7400596,42.4419802 L34.7326044,42.4355968 L34.7159791,42.4238063 L34.7085239,42.417498 L34.6918986,42.4057075 L34.6844433,42.3993241 L34.6678181,42.3876087 L34.6586481,42.3821265 L34.6420229,42.3704111 L34.633002,42.3649289 L34.6163767,42.3531383 L34.6072068,42.3476561 L34.5889414,42.3367668 L34.5798459,42.3312846 L34.561506,42.3203202 L34.552336,42.3149881 L34.5341451,42.3039486 L34.5249751,42.2985415 L34.5067097,42.287502 L34.4976143,42.28217 L34.4784543,42.2695534 L34.4692843,42.2642213 L34.4501988,42.2516047 L34.4410288,42.2461976 L34.4203032,42.2344822 L34.4111332,42.2290751 L34.3904821,42.2173597 L34.380492,42.2103004 L34.3597664,42.198585 L34.3497763,42.1914506 L34.3291252,42.1798103 L34.3191352,42.1726759 L34.2975149,42.1594585 L34.2859592,42.1533004 L34.264339,42.140083 L34.2527087,42.1338498 L34.2295229,42.1213834 L34.2179672,42.1152253 L34.1947813,42.1027589 L34.1782306,42.095249 L34.177336,42.0935968 L34.1425944,42.0749723 C33.1270378,41.5432727 31.8367545,41.3831621 30.538494,41.719004 L30.2007704,41.8063439 L29.3456511,38.4559605 L27.3664264,38.967083 L28.2177435,42.3043992 L26.6343191,42.7134625 L25.7824801,39.385834 L23.8031809,39.8970316 L24.6545726,43.2342727 L20.5724404,44.2924901 L21.1155567,46.4188379 L22.7604125,45.9933281 C23.3048565,45.8521306 23.8598535,46.1822291 24.0000746,46.7306482 L24.0000746,46.7323004 L26.2828032,55.6796482 C26.3760726,56.0457579 26.1573534,56.4187852 25.7940358,56.5132451 L24.3529324,56.8866364 L24.4376243,59.415664 L28.5147614,58.3602253 L29.377336,61.6913834 L31.3557406,61.1786087 L30.5035288,57.8398656 L32.0868787,57.4308024 L32.9395378,60.76917 L34.9179423,60.2564704 L34.0631213,56.904585 C34.3986083,56.8164941 34.6866799,56.7413202 34.8861829,56.6893518 C36.3492048,56.3105534 37.5322813,55.4460158 38.2485089,54.3687984 L38.272664,54.3328261 L38.2743042,54.3319249 L38.2859344,54.3151779 L38.3015159,54.2900949 L38.3089712,54.2776285 L38.3245527,54.2525455 L38.332008,54.2400791 L38.3459493,54.2158221 L38.3534046,54.2032806 L38.3672714,54.1790988 L38.3734592,54.1673834 L38.3874006,54.1432016 L38.3934394,54.1314111 L38.4073807,54.1073043 L38.4135686,54.0955138 L38.4258698,54.0721581 L38.4320577,54.0605178 L38.4443588,54.0372372 L38.4504722,54.0255217 L38.4637425,54.0037431 L38.4697813,53.9920277 L38.4829771,53.9703241 L38.4890905,53.9586087 L38.5007207,53.9377312 L38.506834,53.9260909 L38.5184642,53.9052885 L38.5245775,53.893498 L38.5362078,53.8726957 L38.5407555,53.8619565 L38.5524602,53.841004 L38.557008,53.8302648 L38.5669235,53.8102885 L38.5723658,53.8010514 L38.5823559,53.7809249 L38.5877982,53.7717628 L38.5977137,53.7517115 L38.6031561,53.7424743 L38.6131461,53.722498 L38.6185139,53.713336 L38.6284294,53.6932846 L38.6338718,53.6840474 L38.6438618,53.6640711 L38.6493042,53.654834 L38.6576541,53.6357589 L38.6629473,53.6265217 L38.6712972,53.6073715 L38.675174,53.5991107 L38.6843439,53.5774822 L38.696496,53.5500711 C38.705666,53.5285178 38.7157306,53.5083913 38.7231859,53.4877391 L38.7238569,53.485336 C39.0102106,52.7735406 39.0776133,51.9914888 38.9173211,51.2406324 L38.916501,51.2391304 L38.9155318,51.2374783 L38.9147117,51.235751 L38.9138171,51.2341739 L38.9120278,51.2308696 L38.9112078,51.2292174 L38.9103131,51.2275652 C38.9056412,51.2075389 38.9009443,51.1871871 38.8962227,51.1665099 L38.8962227,51.1623794 L38.895328,51.1608024 L38.8944334,51.1591502 L38.8936133,51.1574229 L38.8927187,51.1557708 L38.8918241,51.1541937 L38.8908549,51.1525415 L38.8901093,51.1508893 L38.8892147,51.1491621 L38.8883201,51.147585 L38.8874254,51.1459328 L38.8866054,51.1442806 L38.8857107,51.1426285 L38.8848161,51.1410514 L38.8813121,51.1345929 C38.8738569,51.1053043 38.8681909,51.0751146 38.8589463,51.0466522 C38.85917,51.0295296 38.854995,50.9988142 38.8532058,50.9641186 Z M27.2235089,44.9782174 C27.5612326,44.8908775 28.9573807,44.5376126 29.4178926,44.4170791 C30.1497763,44.2282806 30.8709245,44.3015771 31.4342445,44.5747866 L31.4531809,44.5832727 L31.4614563,44.5871779 L31.4730865,44.593336 L31.478827,44.596415 L31.4905318,44.6026482 L31.4962724,44.6057273 L31.5079771,44.6119605 L31.5137177,44.6151146 L31.5253479,44.6212727 L31.531163,44.6244269 L31.5427932,44.630585 L31.5485338,44.6337391 L31.5602386,44.6398972 L31.5659791,44.6430514 L31.5776093,44.6492095 L31.5834245,44.6523636 L31.5950547,44.6584466 L31.6007952,44.6616759 L31.6125,44.667834 L31.6182406,44.6709881 L31.6282306,44.6780474 L31.6340457,44.6812016 L31.6440358,44.6882609 L31.6498509,44.6913399 L31.659841,44.6984743 L31.6656561,44.7015534 L31.674826,44.7070356 L31.6805666,44.7101146 L31.6897366,44.7155968 L31.6955517,44.7186759 L31.7047217,44.7241581 L31.7105368,44.7273123 L31.7197068,44.7327194 L31.7254473,44.7358735 L31.7346918,44.7412806 L31.7387922,44.7452609 L31.7479622,44.750668 L31.7513171,44.7530711 L31.7604125,44.7585534 L31.7637674,44.7608814 L31.7729374,44.7663636 L31.7762177,44.7687668 L31.7853877,44.7741739 L31.7888171,44.7765771 L31.7962724,44.7829605 L31.7995527,44.7852885 L31.8087227,44.7907708 L31.8212475,44.7982806 C31.8303429,44.8037628 31.8386928,44.8117984 31.8477883,44.8172055 C32.1360252,45.0364332 32.3478176,45.3420927 32.4527087,45.6902292 L32.4553181,45.6951107 C32.4580765,45.7040474 32.4616551,45.7146364 32.464339,45.7235731 L32.4652336,45.7251502 L32.4703777,45.734913 C32.4740308,45.7499328 32.478504,45.7617233 32.4822316,45.7763676 C32.4861376,45.7911135 32.4886341,45.806202 32.4896869,45.8214269 L32.4949056,45.8311897 L32.4958002,45.8328419 C32.4971927,45.8428788 32.4996933,45.8527277 32.5032555,45.8622055 L32.5058648,45.8670119 C32.5798362,46.2228652 32.5403597,46.5931611 32.3930666,46.9250791 L32.380169,46.9551186 L32.3733101,46.9693123 L32.3678678,46.9784743 L32.3664513,46.9833557 L32.3625746,46.9916917 L32.3610835,46.9967233 L32.3557157,47.0058103 L32.3542247,47.0107668 L32.3488569,47.0199289 L32.3473658,47.0249605 L32.3419235,47.0341225 L32.340507,47.0391542 L32.3351392,47.0482411 L32.3335736,47.0531976 L32.3282803,47.0622846 L32.3267893,47.0673162 L32.3213469,47.0764032 L32.3182903,47.082336 L32.3128479,47.091498 L32.3097913,47.0973557 L32.3043489,47.1065178 L32.3012922,47.1124506 L32.2958499,47.1216877 L32.2927187,47.1275455 L32.2857107,47.1375336 L32.2826541,47.1433913 L32.2751988,47.1534545 L32.2720676,47.1593123 L32.2650596,47.1693004 L32.2619284,47.1752332 L32.2549205,47.1852213 L32.2517893,47.1911542 L32.244334,47.2011423 L32.2412773,47.2070751 L32.2342694,47.2170632 L32.2311382,47.2229209 L32.2241302,47.2329842 L32.220999,47.2387668 L32.2139911,47.24883 L32.2109344,47.2546877 L32.2022863,47.2656522 L32.1991551,47.2715099 L32.1905815,47.2824743 L32.1874503,47.288332 L32.1788767,47.2992964 L32.1758201,47.3051542 L32.1672465,47.3161186 L32.1609095,47.3236285 L32.1492048,47.3403755 C31.785164,47.8540514 31.188668,48.2691976 30.4568588,48.4577708 C29.9955268,48.5768024 28.6031064,48.9446364 28.2653827,49.0320514 L27.2235089,44.9782174 Z M34.9602883,51.8384941 L34.9653579,51.8481818 L34.9662525,51.849834 C34.9682654,51.8613241 34.9709493,51.8701858 34.9728877,51.8816008 L34.9746769,51.8849051 L34.9755716,51.8866324 L34.9764662,51.8882095 C35.0546104,52.2807608 34.9985078,52.6883995 34.8172962,53.0447312 L34.7995527,53.0771739 L34.7910537,53.0921937 L34.7850149,53.1039091 L34.7818091,53.1097668 L34.7764414,53.119004 L34.7733101,53.1248617 L34.7679423,53.1340988 L34.7648111,53.1398814 L34.7573559,53.1500198 L34.7542992,53.1558024 L34.7472913,53.1658656 L34.74416,53.1717233 L34.7371521,53.1817115 L34.7340209,53.1876443 L34.7270129,53.1976324 L34.7239563,53.2035652 L34.716501,53.2135534 L34.7134443,53.2194111 L34.7063618,53.2294743 L34.7032306,53.235332 L34.6962227,53.2453202 L34.6930915,53.2511779 L34.6856362,53.2612411 L34.6825795,53.2670988 L34.6755716,53.2771621 L34.6724404,53.2830198 L34.6638668,53.2939842 L34.6608101,53.2998419 L34.652162,53.3108063 L34.6490308,53.3165889 L34.6415755,53.3291304 L34.6384443,53.3350632 L34.6309891,53.3475296 L34.6279324,53.3533874 L34.6204771,53.3659289 L34.6157803,53.3726126 L34.608325,53.3850791 L34.6036282,53.3917628 L34.5942346,53.4052055 L34.5895378,53.4118893 L34.5801441,53.425332 L34.5755219,53.4320158 L34.5614314,53.4520672 L34.5520378,53.4655099 L34.5474155,53.4721937 L34.5379473,53.4856364 L34.530492,53.4940474 L34.5155815,53.5124466 C34.0734841,54.0810949 33.3600149,54.5488103 32.4944583,54.7727549 C31.9483598,54.9148419 30.2982107,55.3495889 29.89667,55.4528498 L28.7732356,51.0495059 C29.1739563,50.9443676 30.8287276,50.5262174 31.3751243,50.3842055 C32.2412028,50.1602609 33.0914016,50.2237945 33.7486581,50.5063913 L33.7700547,50.5157036 L33.7808648,50.5202846 L33.7963718,50.5264427 L33.803827,50.5286206 L33.8179175,50.5355296 L33.8253728,50.5377826 L33.8393887,50.5446917 L33.8468439,50.5468696 L33.8609344,50.5538538 L33.8667495,50.5569328 L33.88084,50.563917 L33.8866551,50.566996 L33.900671,50.5739051 L33.9064861,50.5771344 L33.9205765,50.5839684 L33.9263171,50.5871225 L33.9380219,50.5932806 L33.9437624,50.5964348 L33.9554672,50.6025929 L33.9612078,50.605747 L33.972838,50.6119051 L33.9785785,50.6150593 L33.9902833,50.6212174 L33.9960239,50.6243715 L34.0077286,50.6305296 L34.0134692,50.6336838 L34.0250994,50.6398419 L34.0309145,50.642996 L34.0425447,50.6491542 L34.0482853,50.6523083 L34.0599901,50.6584664 L34.0657306,50.6616206 L34.0831759,50.6708577 L34.0930915,50.6779921 L34.0989066,50.6810711 L34.1088966,50.688581 L34.1147117,50.6916601 L34.1247018,50.6987945 L34.1305169,50.7018735 L34.140507,50.7093834 L34.1463221,50.7125375 L34.1563121,50.7195217 L34.1620527,50.722751 L34.1711481,50.7281581 L34.1769632,50.7313123 L34.1869533,50.7383715 L34.2002982,50.747834 C34.2102883,50.7548933 34.2218439,50.7611265 34.231834,50.7681858 C34.5606803,50.9927538 34.8046408,51.3225695 34.9242048,51.7042174 L34.9276342,51.7106008 C34.9312873,51.7211146 34.9338966,51.7301265 34.9374006,51.7406403 L34.9382952,51.7422925 L34.9435139,51.7519802 C34.947167,51.7666245 34.9509692,51.7812688 34.9553678,51.797415 C34.9628231,51.7990672 34.9637922,51.8170158 34.9612575,51.8393202 L34.9602883,51.8384941 Z"/>
</svg>
