<svg xmlns="http://www.w3.org/2000/svg" width="300" height="100" viewBox="0 0 300 100" role="img">
  <path fill-rule="evenodd" d="M288.367244,102 L288.367244,-2 L295.998128,-2 L295.998128,102 L288.367244,102 Z M245.879569,32.6685484 L253.462761,32.6685484 L253.462761,65.6406851 L245.502892,65.6406851 L233.631221,44.443665 L233.631221,65.6406851 L226.000337,65.6406851 L226.000337,32.6685484 L233.960206,32.6685484 L245.879569,54.1472494 L245.879569,32.6685484 Z M195.902143,31.8203912 C206.828713,31.8203912 213.329565,40.1108994 213.329565,49.1546654 C213.329565,58.1983341 206.828713,66.4889396 195.902143,66.4889396 C184.925934,66.4889396 178.425082,58.1983341 178.425082,49.1546654 C178.425082,40.1108994 184.925934,31.8203912 195.902143,31.8203912 Z M205.558521,49.1546654 C205.558521,43.7379055 201.883238,38.6977258 195.902143,38.6977258 C189.872382,38.6977258 186.245765,43.7379055 186.245765,49.1546654 C186.245765,54.5714254 189.872382,59.6115077 195.902143,59.6115077 C201.883238,59.6115077 205.558521,54.5714254 205.558521,49.1546654 Z M72.6789331,39.2626448 L72.6789331,32.6685484 L95.2399738,32.6685484 L95.2399738,39.2626448 L87.7501245,39.2626448 L87.7501245,65.6406851 L80.1195321,65.6406851 L80.1195321,39.2626448 L72.6789331,39.2626448 Z M153.555601,46.2809172 L166.037548,46.2809172 L166.037548,52.2642508 L153.555601,52.2642508 L153.555601,59.516511 L166.037548,59.516511 L166.037548,65.6406851 L145.924717,65.6406851 L145.924717,32.6685484 L166.037548,32.6685484 L166.037548,38.7927225 L153.555601,38.7927225 L153.555601,46.2809172 Z M120.95985,32.6685484 C128.259803,32.6685484 132.970707,38.1803051 132.970707,44.5860627 C132.970707,49.2021638 130.520842,53.2990922 126.422162,55.2313411 L133.0184,65.6406851 L124.16307,65.6406851 L118.320187,56.5019223 L114.74029,56.5019223 L114.74029,65.6406851 L107.110379,65.6406851 L107.110379,32.6685484 L120.95985,32.6685484 Z M125.245409,44.5860627 C125.245409,41.5239757 123.172223,38.8860646 119.969003,38.8860646 L114.74029,38.8860646 L114.74029,50.2845035 L119.969003,50.2845035 C123.172223,50.2845035 125.245409,47.6481497 125.245409,44.5860627 Z M57.7468301,61.6370987 L46.0175573,61.6370987 L44.7452241,65.6406851 L36.5954591,65.6406851 L48.3722302,32.6685484 L55.3904052,32.6685484 L67.3079195,65.6406851 L59.0174113,65.6406851 L57.7468301,61.6370987 Z M51.9042396,42.088992 L47.8531549,55.6554197 L55.8603276,55.6554197 L51.9042396,42.088992 Z M17.8006102,32.6685484 C25.1021207,32.6685484 29.8131212,38.1803051 29.8131212,44.5860627 C29.8131212,50.9918203 25.1021207,56.5019223 17.8006102,56.5019223 L11.6305924,56.5019223 L11.6305924,65.6406851 L4,65.6406851 L4,32.6685484 L17.8006102,32.6685484 Z M22.1350304,44.5860627 C22.1350304,41.5239757 20.061941,38.8860646 16.8590136,38.8860646 L11.6305924,38.8860646 L11.6305924,50.2845035 L16.8590136,50.2845035 C20.061941,50.2845035 22.1350304,47.6481497 22.1350304,44.5860627 Z"/>
</svg>
